<svg width="208" height="61" viewBox="0 0 208 61" fill="none" xmlns="http://www.w3.org/2000/svg">
<path d="M51.2559 47.7548L29.6652 60.0051C27.9437 60.9825 25.8335 60.9603 24.1342 59.9607L2.73224 47.3883C1.02186 46.3887 -0.0110177 44.5561 8.86712e-05 42.5681L0.188891 17.7454C0.199998 15.7685 1.27731 13.947 2.98769 12.9697L24.5785 0.719349C26.3 -0.25801 28.4101 -0.235802 30.1094 0.763771L51.5114 13.3362C53.2218 14.3357 54.2547 16.1683 54.2435 18.1563L54.0547 42.979C54.0436 44.9671 52.9774 46.7774 51.2559 47.7548Z" fill="#042F44"/>
<path d="M78.411 34.3827C78.411 37.9479 75.2123 39.9248 70.9586 39.9248C66.4605 39.9248 63.7395 37.6369 63.4729 33.7719H67.1491C67.4379 35.5045 68.4263 36.9705 70.9808 36.9705C73.3464 36.9705 74.7125 35.7932 74.7125 34.3605C74.7125 32.7612 73.6685 32.1504 71.7805 31.7727L69.2482 31.2952C66.1273 30.7065 63.8727 29.3738 63.8727 26.0752C63.8727 22.9543 66.4827 20.7997 70.692 20.7997C74.8458 20.7997 77.5669 22.7433 77.9112 26.3084H74.235C73.9906 24.6869 72.8467 23.7539 70.692 23.7539C68.4263 23.7539 67.5267 25.1089 67.5267 26.1751C67.5267 27.2191 68.0598 28.1187 69.8146 28.463L72.6134 28.9961C76.6339 29.8291 78.411 31.2729 78.411 34.3827Z" fill="#042F44"/>
<path d="M93.8377 24.1316H88.329V39.6805H84.7638V24.1316H79.2662V21.044H93.8377V24.1316Z" fill="#042F44"/>
<path d="M104.944 35.8487H97.6472L96.2922 39.6804H92.4605L99.7019 21.0329H102.9L110.175 39.6804H106.31L104.944 35.8487ZM104.011 33.2165L101.29 25.4976L98.569 33.2165H104.011Z" fill="#042F44"/>
<path d="M126.224 34.3827C126.224 37.9479 123.025 39.9248 118.771 39.9248C114.273 39.9248 111.552 37.6369 111.286 33.7719H114.962C115.251 35.5045 116.239 36.9705 118.794 36.9705C121.159 36.9705 122.525 35.7932 122.525 34.3605C122.525 32.7612 121.481 32.1504 119.593 31.7727L117.061 31.2952C113.94 30.7065 111.686 29.3738 111.686 26.0752C111.686 22.9543 114.296 20.7997 118.505 20.7997C122.659 20.7997 125.38 22.7433 125.724 26.3084H122.048C121.804 24.6869 120.66 23.7539 118.505 23.7539C116.239 23.7539 115.34 25.1089 115.34 26.1751C115.34 27.2191 115.873 28.1187 117.628 28.463L120.426 28.9961C124.436 29.8291 126.224 31.2729 126.224 34.3827Z" fill="#042F44"/>
<path d="M143.45 34.1939C143.45 37.6036 141.217 39.6805 136.42 39.6805H128.667V21.044H136.175C140.251 21.044 142.217 22.9876 142.217 25.8086C142.217 27.5412 141.173 28.874 139.763 29.4626C142.062 30.0957 143.45 32.0171 143.45 34.1939ZM132.21 28.4519H136.175C137.697 28.4519 138.496 27.4079 138.496 26.1085C138.496 24.7202 137.541 24.0094 136.209 24.0094H132.21V28.4519ZM139.618 34.0607C139.618 32.6279 138.841 31.1841 136.397 31.1841H132.221V36.7262H136.32C138.73 36.7262 139.618 35.5267 139.618 34.0607Z" fill="#042F44"/>
<path d="M154.045 39.6805H150.369V32.7057L143.661 21.044H147.659L152.213 29.2738L156.789 21.044H160.787L154.045 32.7057V39.6805Z" fill="#042F44"/>
<path d="M176.069 24.1316H170.56V39.6805H166.995V24.1316H161.509V21.044H176.08V24.1316H176.069Z" fill="#042F44"/>
<path d="M191.229 36.5929V39.6805H178.157V21.044H190.963V24.1316H181.7V28.7629H189.641V31.6395H181.7V36.5929H191.229Z" fill="#042F44"/>
<path d="M208 34.3827C208 37.9479 204.801 39.9248 200.548 39.9248C196.05 39.9248 193.329 37.6369 193.062 33.7719H196.738C197.027 35.5045 198.015 36.9705 200.57 36.9705C202.935 36.9705 204.302 35.7932 204.302 34.3605C204.302 32.7612 203.258 32.1504 201.369 31.7727L198.837 31.2952C195.716 30.7065 193.462 29.3738 193.462 26.0752C193.462 22.9543 196.072 20.7997 200.281 20.7997C204.435 20.7997 207.156 22.7433 207.5 26.3084H203.824C203.58 24.6869 202.436 23.7539 200.281 23.7539C198.015 23.7539 197.116 25.1089 197.116 26.1751C197.116 27.2191 197.649 28.1187 199.404 28.463L202.202 28.9961C206.223 29.8291 208 31.2729 208 34.3827Z" fill="#042F44"/>
<path d="M27.4439 25.1978C26.4443 24.1982 24.8228 24.1982 23.8232 25.1978L17.0483 31.9727C16.804 32.217 16.493 32.3392 16.1487 32.3392C15.8044 32.3392 15.4934 32.2059 15.2491 31.9727L14.3161 31.0397C13.8164 30.5399 13.8164 29.7403 14.3161 29.2516L28.71 14.8578C29.1987 14.3691 29.4652 13.7249 29.4652 13.0474C29.4652 12.3588 29.1987 11.7146 28.71 11.2371C28.2213 10.7484 27.5771 10.4818 26.8997 10.4818C26.2111 10.4818 25.5669 10.7484 25.0893 11.2371L7.98552 28.3298C6.98595 29.3293 6.98595 30.9509 7.98552 31.9504L14.3384 38.3033C14.827 38.792 15.4712 39.0585 16.1487 39.0585C16.8373 39.0585 17.4815 38.792 17.959 38.3033L27.4439 28.8184C28.4434 27.8189 28.4434 26.1973 27.4439 25.1978Z" fill="#FBB040"/>
<path d="M46.2581 28.774L39.9053 22.4212C38.9057 21.4216 37.2841 21.4216 36.2846 22.4212L26.7998 31.906C25.8002 32.9056 25.8002 34.5271 26.7998 35.5267C27.2884 36.0154 27.9326 36.2819 28.6101 36.2819C29.2987 36.2819 29.9428 36.0154 30.4204 35.5267L37.1953 28.7518C37.6951 28.252 38.4947 28.252 38.9834 28.7518L39.9164 29.6848C40.4161 30.1845 40.4161 30.9842 39.9164 31.4729L25.5336 45.8778C24.534 46.8774 24.534 48.4989 25.5336 49.4985C26.0223 49.9872 26.6665 50.2537 27.344 50.2537C28.0326 50.2537 28.6767 49.9872 29.1543 49.4985L46.247 32.4058C47.2577 31.3951 47.2577 29.7736 46.2581 28.774Z" fill="#FBB040"/>
</svg>
