<svg width="218" height="64" viewBox="0 0 218 64" fill="none" xmlns="http://www.w3.org/2000/svg">
<path d="M81.9555 35.9371C81.9555 39.6634 78.6123 41.7297 74.1663 41.7297C69.4649 41.7297 66.6208 39.3383 66.3422 35.2986H70.1846C70.4864 37.1095 71.5196 38.6418 74.1895 38.6418C76.6621 38.6418 78.0899 37.4114 78.0899 35.9139C78.0899 34.2423 76.9987 33.6038 75.0253 33.2091L72.3786 32.7099C69.1166 32.0947 66.7601 30.7017 66.7601 27.254C66.7601 23.992 69.4881 21.74 73.8877 21.74C78.2292 21.74 81.0733 23.7715 81.4331 27.4978H77.5908C77.3354 25.8029 76.1397 24.8278 73.8877 24.8278C71.5196 24.8278 70.5793 26.2441 70.5793 27.3585C70.5793 28.4496 71.1365 29.3899 72.9706 29.7498L75.8959 30.307C80.0982 31.1776 81.9555 32.6867 81.9555 35.9371Z" fill="white"/>
<path d="M98.0796 25.2225H92.3218V41.4743H88.5955V25.2225H82.8493V21.9954H98.0796V25.2225Z" fill="white"/>
<path d="M109.688 37.4693H102.061L100.645 41.4742H96.6401L104.209 21.9836H107.552L115.156 41.4742H111.116L109.688 37.4693ZM108.713 34.7181L105.869 26.6502L103.025 34.7181H108.713Z" fill="white"/>
<path d="M131.93 35.9371C131.93 39.6634 128.586 41.7297 124.14 41.7297C119.439 41.7297 116.595 39.3383 116.316 35.2986H120.159C120.461 37.1095 121.494 38.6418 124.164 38.6418C126.636 38.6418 128.064 37.4114 128.064 35.9139C128.064 34.2423 126.973 33.6038 124.999 33.2091L122.353 32.7099C119.091 32.0947 116.734 30.7017 116.734 27.254C116.734 23.992 119.462 21.74 123.862 21.74C128.203 21.74 131.047 23.7715 131.407 27.4978H127.565C127.31 25.8029 126.114 24.8278 123.862 24.8278C121.494 24.8278 120.553 26.2441 120.553 27.3585C120.553 28.4496 121.111 29.3899 122.945 29.7498L125.87 30.307C130.061 31.1776 131.93 32.6867 131.93 35.9371Z" fill="white"/>
<path d="M149.934 35.7397C149.934 39.3035 147.601 41.4743 142.586 41.4743H134.484V21.9954H142.331C146.591 21.9954 148.646 24.0268 148.646 26.9754C148.646 28.7863 147.555 30.1793 146.08 30.7945C148.483 31.4562 149.934 33.4645 149.934 35.7397ZM138.187 29.7382H142.331C143.921 29.7382 144.757 28.647 144.757 27.2888C144.757 25.8377 143.759 25.0948 142.366 25.0948H138.187V29.7382ZM145.929 35.6004C145.929 34.1029 145.117 32.5938 142.563 32.5938H138.198V38.3864H142.482C145.001 38.3864 145.929 37.1327 145.929 35.6004Z" fill="white"/>
<path d="M161.009 41.4743H157.166V34.1842L150.155 21.9954H154.334L159.093 30.5972L163.876 21.9954H168.055L161.009 34.1842V41.4743Z" fill="white"/>
<path d="M184.028 25.2225H178.27V41.4743H174.544V25.2225H168.81V21.9954H184.04V25.2225H184.028Z" fill="white"/>
<path d="M199.874 38.2471V41.4743H186.211V21.9954H199.595V25.2225H189.914V30.0632H198.214V33.0698H189.914V38.2471H199.874Z" fill="white"/>
<path d="M217.402 35.9371C217.402 39.6634 214.059 41.7297 209.613 41.7297C204.912 41.7297 202.068 39.3383 201.789 35.2986H205.632C205.933 37.1095 206.966 38.6418 209.636 38.6418C212.109 38.6418 213.537 37.4114 213.537 35.9139C213.537 34.2423 212.446 33.6038 210.472 33.2091L207.826 32.7099C204.564 32.0947 202.207 30.7017 202.207 27.254C202.207 23.992 204.935 21.74 209.335 21.74C213.676 21.74 216.52 23.7715 216.88 27.4978H213.038C212.782 25.8029 211.587 24.8278 209.335 24.8278C206.966 24.8278 206.026 26.2441 206.026 27.3585C206.026 28.4496 206.583 29.3899 208.418 29.7498L211.343 30.307C215.545 31.1776 217.402 32.6867 217.402 35.9371Z" fill="white"/>
<path d="M53.8515 13.9506L31.4821 0.798296C29.6944 -0.246461 27.5004 -0.269673 25.7011 0.751867L3.12276 13.5559C1.32345 14.5775 0.209044 16.4813 0.197436 18.5476L9.2678e-05 44.4924C-0.0115157 46.5587 1.06807 48.4741 2.85576 49.5304L25.2252 62.6712C27.0129 63.7159 29.2069 63.7391 31.0062 62.7176L53.5729 49.9135C55.3722 48.892 56.4866 46.9882 56.4982 44.9219L56.6956 18.9771C56.7188 16.9108 55.6392 14.9954 53.8515 13.9506ZM18.7709 40.0347C18.2601 40.5455 17.5868 40.8241 16.8787 40.8241C16.1706 40.8241 15.4857 40.5455 14.9866 40.0347L8.34654 33.3947C7.30178 32.35 7.30178 30.6551 8.34654 29.6104L26.2235 11.745C26.7343 11.2343 27.4076 10.9557 28.1157 10.9557C28.8354 10.9557 29.5087 11.2343 30.0078 11.745C30.5186 12.2558 30.7972 12.9175 30.7972 13.6372C30.7972 14.3569 30.5186 15.0302 30.0078 15.5294L14.9633 30.5739C14.441 31.0963 14.441 31.9321 14.9633 32.4428L15.9384 33.4179C16.1938 33.6733 16.5189 33.801 16.8787 33.801C17.2386 33.801 17.5636 33.6617 17.819 33.4179L24.9001 26.3368C25.9449 25.2921 27.6397 25.2921 28.6845 26.3368C29.7292 27.3816 29.7292 29.0764 28.6845 30.1212L18.7709 40.0347ZM48.3491 33.8591L30.4838 51.7244C29.973 52.2352 29.2997 52.5138 28.5916 52.5138C27.8719 52.5138 27.1986 52.2352 26.6994 51.7244C25.6547 50.6797 25.6547 48.9848 26.6994 47.9401L41.7439 32.8956C42.2663 32.3732 42.2663 31.5374 41.7439 31.0266L40.7688 30.0515C40.2465 29.5291 39.4107 29.5291 38.8999 30.0515L31.8188 37.1326C31.308 37.6434 30.6347 37.922 29.9266 37.922C29.2069 37.922 28.5336 37.6434 28.0344 37.1326C26.9897 36.0879 26.9897 34.393 28.0344 33.3483L37.948 23.4347C38.9928 22.3899 40.6876 22.3899 41.7323 23.4347L48.3724 30.0747C49.3939 31.1195 49.3939 32.8143 48.3491 33.8591Z" fill="white"/>
</svg>
